<?xml version="1.0" encoding="utf-8"?>
<!-- Generator: Adobe Illustrator 25.1.0, SVG Export Plug-In . SVG Version: 6.00 Build 0)  -->
<svg version="1.1" id="icon" xmlns="http://www.w3.org/2000/svg" xmlns:xlink="http://www.w3.org/1999/xlink" x="0px" y="0px"
	 viewBox="0 0 50.617 53.079" enable-background="new 0 0 50.617 53.079" xml:space="preserve">
<g>
	<path fill="#333333" d="M42.093,11.707c-2.232-0.848-4.34-0.706-6.414-0.213c0.123-0.132,0.261-0.245,0.377-0.387
		c2.287-2.793,3.078-6.969,1.938-10.377c-0.021-0.062-0.057-0.105-0.089-0.155c-0.028-0.32-0.241-0.606-0.657-0.573
		c-5.39,0.434-10.073,4.314-11.619,9.31c-1.214-3.621-3.911-6.992-6.759-9.107c-0.21-0.156-0.414-0.153-0.586-0.072
		c-0.02,0.008-0.039,0.022-0.059,0.033c-0.041,0.026-0.08,0.051-0.115,0.086c-0.028,0.023-0.058,0.033-0.084,0.063
		c-1.086,1.218-1.651,3.036-2.065,4.578c-0.069,0.256,0.008,0.462,0.146,0.612c0.079,0.105,0.183,0.197,0.341,0.245
		c3.87,1.182,6.756,4.222,7.837,8.076c-4.302-0.717-7.966-3.433-12.621-2.855c-4.49,0.558-7.985,3.657-9.85,7.688
		c-4.81,10.396,0.737,22.87,7.522,31.055c3.553,4.286,6.856,3.82,11.723,2.205c3.527-1.171,5.921-0.495,9.352,0.366
		c1.903,0.478,4.04,0.975,6.011,0.664c4.726-0.746,7.775-6.491,9.476-10.416c2.505-5.779,4.438-11.715,4.253-18.084
		C49.996,19.168,47.278,13.676,42.093,11.707z M36.743,1.464c0.869,3.046,0.124,6.876-2.123,9.17
		c-2.073,2.117-5.264,2.831-8.143,3.246c0.011-0.059,0.029-0.114,0.024-0.184C26.061,7.722,30.808,2.221,36.743,1.464z
		 M17.473,4.655c0.272-0.976,0.63-2.015,1.189-2.854c2.619,2.123,5.043,5.505,5.904,8.947C23.057,7.935,20.54,5.771,17.473,4.655z
		 M39.544,49.723c-4.634,4.328-9.794-0.274-14.981-0.059c-2.481,0.103-4.665,1.402-7.03,1.99c-4.23,1.053-6.723-2.003-8.828-5.192
		C5.15,41.073,1.862,35.234,1.442,28.656c-0.421-6.591,2.45-14.853,9.753-16.204c5.232-0.968,9.237,2.528,14.211,2.903
		c0.085,0.03,0.184,0.042,0.299,0.027c1.428-0.02,2.826-0.343,4.21-0.765c0.664-0.172,1.311-0.391,1.943-0.638
		c2.947-1.016,5.87-2.075,8.935-1.238c8.327,2.273,8.821,12.63,7.244,19.547C46.687,38.219,44.079,45.488,39.544,49.723z"/>
	<path fill="#333333" d="M12.752,16.539c-4.705,1.937-7.082,7.867-6.29,12.649c0.146,0.883,1.49,0.508,1.344-0.37
		c-0.654-3.943,1.375-9.311,5.316-10.935C13.94,17.546,13.582,16.197,12.752,16.539z"/>
	<path fill="#333333" d="M7.388,32.068c-0.897,0-0.898,1.394,0,1.394C8.285,33.461,8.286,32.068,7.388,32.068z"/>
</g>
</svg>
